<svg xmlns="http://www.w3.org/2000/svg" width="54" height="27" viewBox="0 0 54 27">
  <path fill="#E3000B" fill-rule="evenodd" d="M38.8828956,7.10542736e-15 L54,26.5323039 L46.3491507,26.5323039 L44.6857072,23.6564546 L37.0718149,23.6564546 L39.7329053,18.9824583 L42.0244263,18.9824583 L38.8828956,13.4458925 L35.5935371,19.198147 C35.0761399,20.0972205 34.5583617,20.8878938 34.0409645,21.570908 C31.5278923,24.8785053 27.4618665,27 22.9525479,27 C15.375803,27 9.20323144,20.9957381 9.20323144,13.6256331 C9.20323144,6.2555281 15.375803,0.251451513 22.9525479,0.251451513 C25.5397245,0.251451513 27.8685834,0.934651019 29.9015963,2.08517603 L26.6488138,7.8014824 C25.6140194,7.19017912 24.3203358,6.79493515 22.9525479,6.79493515 C19.0716879,6.79493515 15.9301572,9.85071032 15.9301572,13.6256331 C15.9301572,17.4005559 19.0716879,20.4565164 22.9525479,20.4565164 C25.0594747,20.4565164 26.7968321,19.5935763 28.0535586,18.3353922 C28.6079128,17.7961705 29.2361808,16.8972823 29.4207751,16.5735639 L38.8828956,7.10542736e-15 Z M0,26.5323039 L0,0.718962322 L6.72673522,0.718962322 L6.72673522,26.5323039 L0,26.5323039 Z"/>
</svg>
